# xmcd
#
# Track frame offsets:
#	150
#	13625
#	27147
#	38728
#	50961
#	62500
#	71905
#	89533
#	100297
#	112429
#	122288
#	139517
#	152542
#	163850
#
# Disc length: 2413 seconds
# Revision: 1
# Processed by: cddbd v1.5.2PL0 Copyright (c) Steve Scherf et al.
# Submitted via: dBpowerAMP V12.0
#
DISCID=bf096b0e
DTITLE=Kacey Musgraves - Wanted: One Good Cowboy
DYEAR=2003
DGENRE=Country
TTITLE0=Life Of An Old Cowhand (Original)
TTITLE1=When It's Peach Pickin' Time In Georgia
TTITLE2=If I Could Only Learn To Yodel
TTITLE3=Blue Rose of Texas
TTITLE4=Texas Smile (Original)
TTITLE5=Yodeler's Lament
TTITLE6=Wanted: One Good Cowboy
TTITLE7='Til There's Not A Cow In Texas
TTITLE8=Cowboy's Are A Girl's Best Friend
TTITLE9=Texas Yodeler (Tennessee Yodeler)
TTITLE10=Before My Time (Original)
TTITLE11=Cherokee Maiden
TTITLE12=You're From Texas
TTITLE13=Wayfaring Stranger
EXTD=
EXTT0=
EXTT1=
EXTT2=
EXTT3=
EXTT4=
EXTT5=
EXTT6=
EXTT7=
EXTT8=
EXTT9=
EXTT10=
EXTT11=
EXTT12=
EXTT13=
PLAYORDER=
